<?xml version="1.0" encoding="utf-8"?>
<!-- Generator: Adobe Illustrator 18.1.1, SVG Export Plug-In . SVG Version: 6.00 Build 0)  -->
<svg version="1.1" id="Layer_1" xmlns="http://www.w3.org/2000/svg" xmlns:xlink="http://www.w3.org/1999/xlink" x="0px" y="0px"
	 viewBox="0 0 1097.86 557.856" enable-background="new 0 0 1097.86 557.856" xml:space="preserve">
<path fill="#FFFFFF" d="M983.794,380.834c0.579-3.631-1.898-7.06-5.559-7.673l-17.757-2.971c-3.67-0.614-7.137,1.834-7.76,5.47
	c-0.595,3.641,1.887,7.085,5.556,7.699l11.89,1.99l-0.296,1.766l-11.89-1.99c-3.678-0.615-7.221,2.243-7.914,6.383l-2.248,13.432
	c-0.692,4.14,1.728,7.996,5.405,8.611l17.758,2.972c3.678,0.616,7.221-2.243,7.913-6.383l1.326-7.92l0.922-5.512l2.648-15.822
	l0.009-0.052H983.794z"/>
<path fill="#FFFFFF" d="M979.34,418.665c-0.534,3.193,1.621,6.215,4.814,6.749l0.642,0.108c3.194,0.534,6.215-1.622,6.749-4.815
	l7.996-47.778c0.534-3.193-1.621-6.214-4.814-6.749l-0.642-0.107c-3.194-0.535-6.215,1.621-6.75,4.814L979.34,418.665z"/>
<path fill="#FFFFFF" d="M999.735,383.502c0.635-3.622,4.082-6.059,7.728-5.449l17.691,2.96c3.655,0.612,6.126,4.054,5.531,7.695
	c-0.623,3.635-4.08,6.086-7.735,5.474l-11.845-1.982l-0.295,1.767l11.844,1.982c3.664,0.613,6.073,4.467,5.38,8.607l-2.248,13.432
	c-0.692,4.14-4.224,7-7.889,6.387l-17.69-2.96c-3.664-0.614-6.072-4.468-5.379-8.608l1.326-7.92l0.922-5.512l2.648-15.822
	l0.008-0.051H999.735z"/>
<path fill="#FFFFFF" d="M1014.069,396.194c0-0.009-0.001-0.017-0.001-0.026s0.001-0.017,0.001-0.026V396.194z"/>
<path fill="#283583" d="M604.242,362.415c0,4.556-3.693,8.25-8.25,8.25s-8.25-3.694-8.25-8.25s3.693-8.25,8.25-8.25
	S604.242,357.859,604.242,362.415 M612.742,368.04l10.875,0.125v-15.75l-19.375-0.375l3-8.875l-12.375-11.5l-6.25,20.75h-13
	l-0.625,17.375l9.25-0.625l-4,21.25l15.125,2.125l3.25-15.125l13.875,15.125l11.125-12L612.742,368.04z"/>
<path fill="#CD1719" d="M739.649,414.623c-2.879,0.772-5.838-0.937-6.609-3.816c-0.771-2.878,0.937-5.838,3.816-6.609
	c2.879-0.771,5.838,0.937,6.609,3.816C744.237,410.893,742.528,413.852,739.649,414.623 M749.788,410.129l6.892-1.762l-2.666-9.952
	l-12.305,3.044l0.393-6.116l-9.766-5.171l-0.436,14.169l-8.214,2.201l2.547,11.084l5.738-1.961l1.071,14.103l9.916-1.218
	l-0.507-10.106l11.327,7.207l4.997-9.465L749.788,410.129z"/>
<path fill="#009FE3" d="M816.782,378.624c-3.733,2.613-8.877,1.706-11.49-2.026c-2.613-3.733-1.707-8.877,2.026-11.49
	c3.732-2.614,8.877-1.707,11.49,2.026C821.421,370.866,820.514,376.01,816.782,378.624 M828.997,366.866l8.98-6.135l-9.034-12.902
	l-16.086,10.806l-2.633-8.991l-16.733-2.322l6.782,20.582l-10.649,7.457l9.454,14.591l7.218-5.818l8.912,19.702l13.609-6.935
	l-6.013-14.254l20.041,4.432l2.23-16.211L828.997,366.866z"/>
<path fill="#009FE3" d="M682.166,462.191c-2.361,1.052-5.127-0.01-6.178-2.371c-1.051-2.361,0.011-5.126,2.372-6.177
	c2.36-1.052,5.126,0.01,6.177,2.371C685.588,458.374,684.527,461.14,682.166,462.191 M693.126,458.398l-3.684-9.146l-4.649,2.457
	l-2.829-11.932l-8.327,2.388l1.805,8.586l-10.677-4.636l-2.996,8.784l8.518,3.967l-5.664,2.444l3.633,8.161l10.125-4.276
	l0.493,5.291l9.065,3.103l-1.548-12.192L693.126,458.398z"/>
<path fill="#F28C00" d="M865.114,459.001c-5.061,3.162-11.728,1.624-14.891-3.438c-3.163-5.062-1.624-11.729,3.438-14.892
	c5.061-3.163,11.728-1.624,14.891,3.438C871.715,449.171,870.176,455.838,865.114,459.001 M892.766,427.241l-27.389,7.461
	l-9.024-14.442l-19.735,11.367l7.115,9.842l-26.383,10.307l8.138,18.277l19.059-6.889l-7.171,25.913l21.053,4.028l6.337-20.757
	l7.41,12.167l17.496-10.933l-13.032-21.783l11.941-2.828L892.766,427.241z"/>
<path fill="#3FA535" d="M481.724,158.431c-5.681,5.681-15.127,5.446-21.099-0.526c-5.972-5.972-6.207-15.418-0.526-21.098
	c5.681-5.681,15.127-5.446,21.099,0.526C487.17,143.305,487.405,152.751,481.724,158.431 M509.291,110.878l-23.118,14.599
	l0.674-37.043l-29.542,0.381l-1.333,29.838l-14.096-14.408l-19.638,19.637l24.925,25.86l-14.997,7.134l1.88,30.557l34.063-17.68
	l17.038,17.038l22.482-20.845l-12.902-11.344l31.737-21.252L509.291,110.878z"/>
<path fill="#F28C00" d="M361.904,313.411c-2.879,0.771-5.838-0.937-6.609-3.816c-0.772-2.879,0.937-5.838,3.816-6.609
	c2.879-0.772,5.838,0.937,6.609,3.815C366.491,309.68,364.783,312.639,361.904,313.411 M375.074,311.067l-2.547-11.084l-5.738,1.961
	l-1.071-14.104l-9.916,1.218l0.507,10.107l-11.327-7.207l-4.998,9.465l8.988,6.057l-6.893,1.762l2.667,9.951l12.305-3.043
	l-0.393,6.115l9.766,5.171l0.436-14.168L375.074,311.067z"/>
<path fill="#FFED00" d="M468.461,337.907c-3.733,2.614-8.877,1.706-11.49-2.026c-2.613-3.732-1.707-8.876,2.026-11.49
	c3.733-2.613,8.877-1.706,11.49,2.026S472.194,335.293,468.461,337.907 M486.155,327.654l-9.454-14.591l-7.219,5.817l-8.911-19.701
	l-13.609,6.935l6.013,14.253l-20.041-4.431l-2.23,16.211l16.078,4.002l-8.98,6.135l9.034,12.902l16.086-10.806l2.633,8.99
	l16.733,2.323l-6.782-20.582L486.155,327.654z"/>
<path fill="#FFED00" d="M409.632,243.802c-2.361,1.051-5.126-0.011-6.177-2.371c-1.051-2.361,0.01-5.127,2.371-6.178
	c2.361-1.051,5.126,0.011,6.177,2.371C413.054,239.985,411.993,242.751,409.632,243.802 M417.705,238.578l5.663-2.444l-3.633-8.16
	l-10.125,4.275l-0.493-5.29l-9.064-3.104l1.548,12.193l-6.735,2.999l3.684,9.146l4.648-2.458l2.83,11.933l8.326-2.388l-1.805-8.586
	l10.678,4.636l2.996-8.784L417.705,238.578z"/>
<path fill="#E6007E" d="M308.53,239.867c-5.062,3.162-11.729,1.624-14.892-3.438s-1.623-11.729,3.438-14.892
	c5.062-3.162,11.729-1.624,14.892,3.438C315.131,230.037,313.591,236.704,308.53,239.867 M336.702,210.485l-19.058,6.889
	l7.171-25.913l-21.053-4.028l-6.337,20.757l-7.41-12.167l-17.497,10.933l13.033,21.783l-11.942,2.828l-4.185,21.73l27.39-7.461
	l9.024,14.442l19.735-11.367l-7.115-9.842l26.382-10.307L336.702,210.485z"/>
<path fill="#CD1719" d="M176.005,218.988c-2.088,9.046-11.114,14.685-20.16,12.597c-9.045-2.088-14.685-11.114-12.597-20.16
	c2.089-9.046,11.114-14.685,20.16-12.597C172.453,200.917,178.093,209.942,176.005,218.988 M208.271,168.671l-29.8,15.861
	l5.232-21.533l-31.268-7.219l-9.624,38.293l-16.245-10.024l-28.502,19.297l38.33,21.919l-5.959,25.808l34.208,9.205l2.999-18.651
	l40.353,17.681l11.151-29.053l-28.537-13.385l36.386-20.613L208.271,168.671z"/>
<path fill="#3FA535" d="M103.21,120.492c-4.52,4.52-11.848,4.52-16.368,0c-4.52-4.52-4.52-11.848,0-16.368
	c4.52-4.52,11.848-4.52,16.368,0C107.73,108.644,107.73,115.972,103.21,120.492 M125.53,83.044l-18.228,11.78l1.24-28.768
	l-22.94,0.868L83.99,90.112L73.326,79.2L57.702,94.824l18.848,19.592l-11.78,5.828l0.868,23.684l26.784-14.384l12.896,12.896
	l17.856-16.616l-9.796-8.556l25.048-17.112L125.53,83.044z"/>
</svg>
